<svg width="1366" height="261" viewBox="0 0 1366 261" fill="none" xmlns="http://www.w3.org/2000/svg">
<mask id="mask0_79_825" style="mask-type:alpha" maskUnits="userSpaceOnUse" x="0" y="0" width="1366" height="261">
<rect width="1366" height="261" fill="#034844"/>
</mask>
<g mask="url(#mask0_79_825)">
<g opacity="0.5">
<g opacity="0.7">
<path d="M822.422 -228.57C595.98 -172.828 681.819 39.9773 753.044 139.412C977.75 381.959 1101.58 159.027 1017.92 -17.5536C934.251 -194.134 1310.61 -52.1295 1333.73 -285.654C1360.54 -556.436 1105.47 -298.247 822.422 -228.57Z" stroke="#A09F9F" stroke-width="3"/>
<path opacity="0.95875" d="M829.032 -220.14C600.225 -171.602 677.842 43.4496 745.252 144.908C960.696 393.988 1093.32 175.393 1016.47 -3.44121C939.614 -182.276 1310.76 -28.7833 1343 -261.101C1380.38 -530.483 1115.04 -280.813 829.032 -220.14Z" stroke="#A09F9F" stroke-width="3"/>
<path opacity="0.9175" d="M835.317 -211.522C604.424 -170.246 673.725 46.7903 737.238 150.149C943.157 405.458 1084.42 191.467 1014.47 10.5966C944.518 -170.274 1309.99 -5.48078 1351.32 -236.309C1399.23 -503.963 1123.93 -263.116 835.317 -211.522Z" stroke="#A09F9F" stroke-width="3"/>
<path opacity="0.87625" d="M841.272 -202.724C608.573 -168.762 669.475 49.9951 729.012 155.128C925.155 416.355 1074.87 207.229 1011.92 24.5428C948.958 -158.143 1308.32 17.7496 1358.68 -211.307C1417.07 -476.908 1132.14 -245.177 841.272 -202.724Z" stroke="#A09F9F" stroke-width="3"/>
<path opacity="0.835" d="M846.889 -193.758C612.669 -167.151 665.095 53.0602 720.586 159.84C906.714 426.666 1064.71 222.659 1008.82 38.3802C952.928 -145.899 1305.74 40.8795 1365.07 -186.127C1433.86 -449.351 1139.66 -227.018 846.889 -193.758Z" stroke="#A09F9F" stroke-width="3"/>
<path opacity="0.79375" d="M852.161 -184.635C616.705 -165.415 660.593 55.9819 711.969 164.278C887.855 436.378 1053.94 237.739 1005.18 52.0921C956.425 -133.555 1302.26 63.8809 1370.48 -160.799C1449.59 -421.325 1146.48 -208.661 852.161 -184.635Z" stroke="#A09F9F" stroke-width="3"/>
<path opacity="0.7525" d="M857.082 -175.366C620.676 -163.556 655.973 58.7567 703.171 168.437C868.602 445.48 1042.57 252.451 1001.01 65.6617C959.444 -121.128 1297.87 86.7256 1374.92 -135.354C1464.25 -392.864 1152.59 -190.129 857.082 -175.366Z" stroke="#A09F9F" stroke-width="3"/>
<path opacity="0.71125" d="M861.646 -165.962C624.579 -161.576 651.24 61.381 694.204 172.311C848.977 453.96 1030.62 266.776 996.298 79.0725C961.981 -108.631 1292.6 109.386 1378.36 -109.823C1477.8 -364.004 1157.98 -171.444 861.646 -165.962Z" stroke="#A09F9F" stroke-width="3"/>
<path opacity="0.67" d="M865.848 -156.434C628.408 -159.479 646.402 63.8518 685.078 175.898C829.005 461.809 1018.09 280.698 991.064 92.3083C964.034 -96.0816 1286.43 131.834 1380.81 -84.2361C1490.25 -334.778 1162.65 -152.629 865.848 -156.434Z" stroke="#A09F9F" stroke-width="3"/>
<path opacity="0.62875" d="M869.681 -146.795C632.158 -157.266 641.463 66.166 675.805 179.191C808.71 469.016 1005.02 294.199 985.309 105.353C965.598 -83.4936 1279.39 154.043 1382.27 -58.6259C1501.56 -305.224 1166.58 -133.706 869.681 -146.795Z" stroke="#A09F9F" stroke-width="3"/>
<path opacity="0.5875" d="M873.142 -137.056C635.825 -154.94 636.429 68.3208 666.396 182.187C788.117 475.573 991.407 307.263 979.04 118.19C966.674 -70.8826 1271.47 175.985 1382.73 -33.023C1511.74 -275.377 1169.79 -114.7 873.142 -137.056Z" stroke="#A09F9F" stroke-width="3"/>
<path opacity="0.54625" d="M876.225 -127.228C639.403 -152.504 631.306 70.3136 656.859 184.882C767.25 481.471 977.272 319.873 972.264 130.805C967.256 -58.264 1262.69 197.635 1382.19 -7.45868C1520.76 -245.273 1172.25 -95.6324 876.225 -127.228Z" stroke="#A09F9F" stroke-width="3"/>
<path opacity="0.505" d="M878.929 -117.324C642.891 -149.962 626.102 72.142 647.212 187.273C746.136 486.705 962.635 332.015 964.993 143.181C967.35 -45.6532 1253.06 218.964 1380.66 18.0359C1528.61 -214.949 1173.98 -76.5272 878.929 -117.324Z" stroke="#A09F9F" stroke-width="3"/>
<path opacity="0.46375" d="M881.251 -107.356C646.285 -147.315 620.824 73.8036 637.465 189.358C724.802 491.266 947.515 343.674 957.235 155.304C966.954 -33.0656 1242.6 239.948 1378.13 43.4298C1535.29 -184.441 1174.96 -57.4076 881.251 -107.356Z" stroke="#A09F9F" stroke-width="3"/>
<path opacity="0.4225" d="M883.183 -97.3361C649.574 -144.568 615.474 75.2966 627.625 191.133C703.269 495.151 931.924 354.835 948.993 167.159C966.063 -20.5164 1231.3 260.561 1374.61 68.692C1540.78 -153.788 1175.19 -38.2968 883.183 -97.3361Z" stroke="#A09F9F" stroke-width="3"/>
<path opacity="0.38125" d="M884.73 -87.2763C652.763 -141.723 610.064 76.6191 617.711 192.596C681.57 498.353 915.888 365.486 940.287 178.732C964.686 -8.02108 1219.19 280.778 1370.1 93.7917C1545.09 -123.026 1174.69 -19.2181 884.73 -87.2763Z" stroke="#A09F9F" stroke-width="3"/>
<path opacity="0.34" d="M885.882 -77.1889C655.84 -138.784 604.595 77.7694 607.727 193.746C659.723 500.869 899.419 375.612 931.118 190.008C962.817 4.40524 1206.28 300.574 1364.61 118.698C1548.19 -92.1935 1173.43 -0.194879 885.882 -77.1889Z" stroke="#A09F9F" stroke-width="3"/>
<path opacity="0.29875" d="M886.644 -67.0863C658.807 -135.755 599.078 78.7462 597.692 194.58C637.762 502.696 882.544 385.201 921.504 200.974C960.464 16.7474 1192.59 319.925 1358.14 143.382C1550.1 -61.3272 1171.44 18.7499 886.644 -67.0863Z" stroke="#A09F9F" stroke-width="3"/>
<path opacity="0.2575" d="M887.013 -56.9807C661.659 -132.64 593.518 79.5482 587.617 195.1C615.711 503.832 865.281 394.243 911.455 211.617C957.628 28.9904 1178.14 338.807 1350.71 167.811C1550.81 -30.4649 1168.7 37.593 887.013 -56.9807Z" stroke="#A09F9F" stroke-width="3"/>
<path opacity="0.21625" d="M886.99 -46.8845C664.393 -129.441 587.924 80.1746 577.514 195.302C593.599 504.275 847.652 402.725 900.984 221.922C954.315 41.1193 1162.94 357.198 1342.32 191.958C1550.32 0.355781 1165.24 56.3115 886.99 -46.8845Z" stroke="#A09F9F" stroke-width="3"/>
<path opacity="0.175" d="M886.57 -36.8099C667.002 -126.164 582.297 80.6245 567.391 195.188C571.447 504.026 829.674 410.638 890.098 231.879C950.522 53.1193 1147 375.074 1332.98 215.792C1548.62 31.0972 1161.03 74.8826 886.57 -36.8099Z" stroke="#A09F9F" stroke-width="3"/>
<path opacity="0.13375" d="M885.758 -26.7693C669.486 -122.812 576.65 80.8973 557.266 194.757C549.288 503.083 811.375 417.972 878.817 241.474C946.26 64.9758 1130.36 392.415 1322.7 239.284C1545.73 61.722 1156.1 93.2837 885.758 -26.7693Z" stroke="#A09F9F" stroke-width="3"/>
<path opacity="0.0925" d="M884.555 -16.7749C671.843 -119.389 570.987 80.9929 547.149 194.01C527.146 501.449 792.774 424.718 867.153 250.696C941.532 76.6744 1113.02 409.2 1311.5 262.406C1541.64 92.1928 1150.45 111.492 884.555 -16.7749Z" stroke="#A09F9F" stroke-width="3"/>
<path opacity="0.05125" d="M882.961 -6.83878C674.067 -115.899 565.316 80.911 537.052 192.948C505.05 499.125 773.894 430.868 855.119 259.534C936.344 88.2008 1095.02 425.406 1299.39 285.129C1536.35 122.472 1144.08 129.486 882.961 -6.83878Z" stroke="#A09F9F" stroke-width="3"/>
<path opacity="0.01" d="M880.978 3.02687C676.158 -112.347 559.643 80.6517 526.988 191.573C483.025 496.113 754.758 436.414 842.73 267.977C930.702 99.5409 1076.37 441.016 1286.38 307.427C1529.89 152.524 1137 147.244 880.978 3.02687Z" stroke="#A09F9F" stroke-width="3"/>
</g>
</g>
</g>
</svg>
